v 0 0 6
v 0 0 0
v 1.0954452 0.0000000000000004440892 6
v 1.0954452 0.0000000000000004440892 0
v 1.0954452 3.904555 0
v 1.0954452 3.904555 6
v 8 3.904555 6
v 8 3.904555 0
v 8 5 0
v 8 5 6
v 0 5 6
v 0 5 0
vt -0.00054772256 0.003
vt -0.00054772256 -0.003
vt 0.00054772256 0.003
vt 0.00054772256 -0.003
vt 0.003 0.0019522775
vt -0.003 0.0019522775
vt -0.003 -0.0019522775
vt 0.003 -0.0019522775
vt -0.0034522775 0.003
vt -0.0034522775 -0.003
vt 0.0034522775 0.003
vt 0.0034522775 -0.003
vt 0.003 0.00054772256
vt -0.003 0.00054772256
vt -0.003 -0.00054772256
vt 0.003 -0.00054772256
vt 0.004 -0.003
vt 0.004 0.003
vt -0.004 -0.003
vt -0.004 0.003
vt 0.003 0.0025
vt -0.003 0.0025
vt -0.003 -0.0025
vt 0.003 -0.0025
vt 0.0010954451 0.00000000000000000044408923
vt 0 0
vt 0.0010954451 0.003904555
vt 0 0.005
vt 0.008 0.005
vt 0.008 0.003904555
vn 0 -1 0
vn 1 -0 0
vn 0 1 0
vn -1 -0 0
vn -0 0 -1
vn 0 -0 1
o Unnamed-0
f 1/1/1 2/2/1 3/3/1
f 3/3/1 2/2/1 4/4/1
f 3/5/2 4/6/2 5/7/2
f 6/8/2 3/5/2 5/7/2
f 6/9/1 5/10/1 7/11/1
f 7/11/1 5/10/1 8/12/1
f 7/13/2 8/14/2 9/15/2
f 10/16/2 7/13/2 9/15/2
f 10/17/3 9/18/3 11/19/3
f 11/19/3 9/18/3 12/20/3
f 11/21/4 12/22/4 2/23/4
f 1/24/4 11/21/4 2/23/4
f 4/25/5 2/26/5 5/27/5
f 5/27/5 2/26/5 12/28/5
f 5/27/5 12/28/5 9/29/5
f 9/29/5 8/30/5 5/27/5
f 11/28/6 6/27/6 10/29/6
f 10/29/6 6/27/6 7/30/6
f 1/26/6 6/27/6 11/28/6
f 3/25/6 6/27/6 1/26/6
