v 0 -4 0
v 0 0 0
v 0 -4 -1
v 0 0 -1
v 3.0950184 -4 -1
v 3.0950184 0 -1
v 4.5231667 -0 -2
v 5.951315 0 -3
v 5.951315 -4 -3
v 9.5 -4 -3
v 9.5 0 -3
v 9.5 -4 -2.5
v 9.5 0 -2.5
v 6.108964 -4 -2.5
v 6.108964 0 -2.5
v 3.4311862 -4 -0.625
v 4.3237786 -4 -1.25
v 4.3237786 -0 -1.25
v 3.4311862 -0 -0.625
v 2.538594 0 0
v 2.538594 -4 0
v 3.342784 -4 0.375
v 4.146974 -4 0.75
v 3.342784 -0 0.375
v 4.146974 -0 0.75
v 5.7553544 0 1.5
v 5.7553544 -4 1.5
v 9.5 -4 1.5
v 9.5 0 1.5
v 9.5 -4 2
v 9.5 0 2
v 5.644507 -4 2
v 5.644507 0 2
v 3.5 -4 1
v 3.5 0 1
v 0 -4 1
v 0 0 1
vt 0.0005 -0.002
vt 0.0005 0.002
vt -0.0005 -0.002
vt -0.0005 0.002
vt -0.0015475092 0.002
vt -0.0015475092 -0.002
vt 0.0015475092 0.002
vt 0.0015475092 -0.002
vt 0.000000000000000001951564 -0.002
vt 0.0017434468 -0.002
vt 0.0017434468 0.002
vt -0.0017434468 0.002
vt -0.0017434468 -0.002
vt -0.0017743427 0.002
vt -0.0017743427 -0.002
vt 0.0017743427 0.002
vt 0.0017743427 -0.002
vt -0.00025 0.002
vt 0.00025 -0.002
vt 0.00025 0.002
vt 0.001695518 -0.002
vt 0.001695518 0.002
vt -0.001695518 -0.002
vt -0.001695518 0.002
vt -0.0010896543 -0.002
vt 0.0000000000000000018431437 -0.002
vt 0.0000000000000000018431437 0.002
vt 0.0021793086 -0.002
vt 0.0021793086 0.002
vt -0.0010896543 0.002
vt -0.0021793086 0.002
vt -0.0021793086 -0.002
vt -0.0008873256 0.002
vt -0.0017746512 0.002
vt -0.0017746512 -0.002
vt 0.0000000000000000017889336 0.002
vt -0.0008873256 -0.002
vt 0.0000000000000000017889336 -0.002
vt 0.0017746512 -0.002
vt 0.0017746512 0.002
vt -0.0018723229 0.002
vt -0.0018723229 -0.002
vt 0.0018723229 0.002
vt 0.0018723229 -0.002
vt 0.0019277466 -0.002
vt 0.0019277466 0.002
vt -0.0019277466 -0.002
vt -0.0019277466 0.002
vt 0.0011831007 -0.002
vt 0.0011831007 0.002
vt -0.0011831007 -0.002
vt -0.0011831007 0.002
vt 0.00175 -0.002
vt 0.00175 0.002
vt -0.00175 -0.002
vt -0.00175 0.002
vt 0.003342784 0.000375
vt 0.002538594 0
vt 0.0035 0.001
vt 0.0045231665 -0.002
vt 0.0030950184 -0.001
vt 0.0043237787 -0.00125
vt 0.0034311863 -0.000625
vt 0.004146974 0.00075
vt 0.005644507 0.002
vt 0 -0.001
vt 0.006108964 -0.0025
vt 0 0
vt 0 0.001
vt 0.005755354 0.0015
vt 0.0059513147 -0.003
vn -1 -0 0
vn 0 -0 -1
vn -0.57357645 -0 -0.81915206
vn 1 -0 0
vn 0 -0 1
vn 0.57357645 -0 0.81915206
vn 0.42261827 -0 -0.9063078
vn -0.42261827 -0 0.9063078
vn -0 1 -0
vn 0 -1 0
o Unnamed-0
f 1/1/1 2/2/1 3/3/1
f 3/3/1 2/2/1 4/4/1
f 3/5/2 4/6/2 5/7/2
f 5/7/2 4/6/2 6/8/2
f 7/9/3 8/10/3 9/11/3
f 5/12/3 6/13/3 7/9/3
f 9/11/3 5/12/3 7/9/3
f 9/14/2 8/15/2 10/16/2
f 10/16/2 8/15/2 11/17/2
f 10/18/4 11/19/4 12/20/4
f 12/21/5 13/22/5 14/23/5
f 14/23/5 13/22/5 15/24/5
f 16/25/6 17/26/6 18/27/6
f 17/26/6 14/28/6 15/29/6
f 19/30/6 20/31/6 21/32/6
f 16/25/6 19/30/6 21/32/6
f 17/26/6 15/29/6 18/27/6
f 19/30/6 16/25/6 18/27/6
f 22/33/7 21/34/7 20/35/7
f 23/36/7 22/33/7 24/37/7
f 24/37/7 25/38/7 23/36/7
f 25/38/7 26/39/7 27/40/7
f 22/33/7 20/35/7 24/37/7
f 27/40/7 23/36/7 25/38/7
f 27/41/2 26/42/2 28/43/2
f 28/43/2 26/42/2 29/44/2
f 28/18/4 29/19/4 30/20/4
f 30/45/5 31/46/5 32/47/5
f 32/47/5 31/46/5 33/48/5
f 32/49/8 33/50/8 34/51/8
f 34/51/8 33/50/8 35/52/8
f 34/53/5 35/54/5 36/55/5
f 36/55/5 35/54/5 37/56/5
f 36/1/1 37/2/1 1/3/1
f 1/3/1 37/2/1 2/4/1
f 24/57/9 20/58/9 35/59/9
f 7/60/9 6/61/9 18/62/9
f 19/63/9 18/62/9 6/61/9
f 24/57/9 35/59/9 25/64/9
f 25/64/9 35/59/9 33/65/9
f 4/66/9 20/58/9 6/61/9
f 18/62/9 15/67/9 7/60/9
f 4/66/9 2/68/9 20/58/9
f 20/58/9 19/63/9 6/61/9
f 20/58/9 2/68/9 37/69/9
f 35/59/9 20/58/9 37/69/9
f 22/57/10 34/59/10 21/58/10
f 23/64/10 34/59/10 22/57/10
f 16/63/10 5/61/10 17/62/10
f 23/64/10 27/70/10 34/59/10
f 36/69/10 21/58/10 34/59/10
f 36/69/10 1/68/10 21/58/10
f 5/61/10 16/63/10 21/58/10
f 17/62/10 5/61/10 9/71/10
f 21/58/10 3/66/10 5/61/10
f 3/66/10 21/58/10 1/68/10
