v 0 5 2
v 0 5 0
v -0.5881029 5.9711084 2
v -0.5881029 5.9711084 0
v -1.170542 5.8847117 2
v -1.170542 5.8847117 0
v -1.4514234 4.784702 2
v -1.4514234 4.784702 0
v -1.9134171 4.6193976 2
v -1.9134171 4.6193976 0
v -2.8283803 5.2915277 2
v -2.8283803 5.2915277 0
v -3.3334215 4.9888177 2
v -3.3334215 4.9888177 0
v -3.1719663 3.8650522 2
v -3.1719663 3.8650522 0
v -3.535534 3.535534 2
v -3.535534 3.535534 0
v -4.638063 3.8063595 2
v -4.638063 3.8063595 0
v -4.9888177 3.3334215 2
v -4.9888177 3.3334215 0
v -4.409606 2.3569837 2
v -4.409606 2.3569837 0
v -4.6193976 1.9134171 2
v -4.6193976 1.9134171 0
v -5.741642 1.741708 2
v -5.741642 1.741708 0
v -5.8847117 1.170542 2
v -5.8847117 1.170542 0
v -4.975924 0.4900857 2
v -4.975924 0.4900857 0
v -5 -0.000000000100000674 2
v -5 -0.000000000100000674 0
v -5.9711084 -0.5881029 2
v -5.9711084 -0.5881029 0
v -5.8847117 -1.170542 2
v -5.8847117 -1.170542 0
v -4.784702 -1.4514234 2
v -4.784702 -1.4514234 0
v -4.6193976 -1.9134171 2
v -4.6193976 -1.9134171 0
v -5.2915277 -2.8283803 2
v -5.2915277 -2.8283803 0
v -4.9888177 -3.3334215 2
v -4.9888177 -3.3334215 0
v -3.8650522 -3.1719663 2
v -3.8650522 -3.1719663 0
v -3.535534 -3.535534 2
v -3.535534 -3.535534 0
v -3.8063595 -4.638063 2
v -3.8063595 -4.638063 0
v -3.3334215 -4.9888177 2
v -3.3334215 -4.9888177 0
v -2.3569837 -4.409606 2
v -2.3569837 -4.409606 0
v -1.9134171 -4.6193976 2
v -1.9134171 -4.6193976 0
v -1.741708 -5.741642 2
v -1.741708 -5.741642 0
v -1.170542 -5.8847117 2
v -1.170542 -5.8847117 0
v -0.4900857 -4.975924 2
v -0.4900857 -4.975924 0
v 0.0000000003000007 -5 2
v 0.0000000003000007 -5 0
v 0.5881029 -5.9711084 2
v 0.5881029 -5.9711084 0
v 1.170542 -5.8847117 2
v 1.170542 -5.8847117 0
v 1.4514234 -4.784702 2
v 1.4514234 -4.784702 0
v 1.9134171 -4.6193976 2
v 1.9134171 -4.6193976 0
v 2.8283803 -5.2915277 2
v 2.8283803 -5.2915277 0
v 3.3334215 -4.9888177 2
v 3.3334215 -4.9888177 0
v 3.1719663 -3.8650522 2
v 3.1719663 -3.8650522 0
v 3.535534 -3.535534 2
v 3.535534 -3.535534 0
v 4.638063 -3.8063595 2
v 4.638063 -3.8063595 0
v 4.9888177 -3.3334215 2
v 4.9888177 -3.3334215 0
v 4.409606 -2.3569837 2
v 4.409606 -2.3569837 0
v 4.6193976 -1.9134171 2
v 4.6193976 -1.9134171 0
v 5.741642 -1.741708 2
v 5.741642 -1.741708 0
v 5.8847117 -1.170542 2
v 5.8847117 -1.170542 0
v 4.975924 -0.4900857 2
v 4.975924 -0.4900857 0
v 5 0.0000000001999998 2
v 5 0.0000000001999998 0
v 5.9711084 0.5881029 2
v 5.9711084 0.5881029 0
v 5.8847117 1.170542 2
v 5.8847117 1.170542 0
v 4.784702 1.4514234 2
v 4.784702 1.4514234 0
v 4.6193976 1.9134171 2
v 4.6193976 1.9134171 0
v 5.2915277 2.8283803 2
v 5.2915277 2.8283803 0
v 4.9888177 3.3334215 2
v 4.9888177 3.3334215 0
v 3.8650522 3.1719663 2
v 3.8650522 3.1719663 0
v 3.535534 3.535534 2
v 3.535534 3.535534 0
v 3.8063595 4.638063 2
v 3.8063595 4.638063 0
v 3.3334215 4.9888177 2
v 3.3334215 4.9888177 0
v 2.3569837 4.409606 2
v 2.3569837 4.409606 0
v 1.9134171 4.6193976 2
v 1.9134171 4.6193976 0
v 1.741708 5.741642 2
v 1.741708 5.741642 0
v 1.170542 5.8847117 2
v 1.170542 5.8847117 0
v 0.4900857 4.975924 2
v 0.4900857 4.975924 0
v 1.8205469 0.8280154 0
v 1.9227979 0.5503164 2
v 1.4142135 1.4142135 2
v 1.7276871 -1.0075204 0
v 1.9227979 -0.5503164 2
v 2 -0.00000000000000048985874 0
v 1.673991 -1.0944195 0
v 1.4142135 -1.4142135 2
v 0.9185892 -1.776568 0
v 0.5503164 -1.9227979 2
v -0.17970888 -1.99191 0
v -0.5503164 -1.9227979 2
v -1.4142135 -1.4142135 2
v -1.2605962 -1.5527064 0
v -1.8595766 -0.7361894 0
v -1.9666108 0.3639261 0
v -1.9227979 -0.5503164 2
v -1.9227979 0.5503164 2
v -1.4142135 1.4142135 0
v -1.4142135 1.4142135 2
v -0.5503164 1.9227979 0
v 0.5503164 1.9227979 0
v -0.5503164 1.9227979 2
v 1.99191 0.17970888 2
v 2 -0.00000000000000048985874 2
v 1.4142135 1.4142135 0
v 0.5503164 1.9227979 2
v 1.4142135 -1.4142135 0
v 0.5503164 -1.9227979 0
v -1.4142135 -1.4142135 0
v -1.9666108 -0.3639261 0
v -1.8595766 0.7361894 0
v -0.5503164 -1.9227979 0
v -1.2605962 1.5527064 0
v -0.17970888 1.99191 0
v 0.9185892 1.776568 0
v 1.673991 1.0944195 0
v -1.9666108 0.3639261 2
v -1.2605962 -1.5527064 2
v -1.8595766 -0.7361894 2
v 0.9185892 -1.776568 2
v -0.17970888 -1.99191 2
v 1.673991 -1.0944195 2
vt 0.0005676523 -0.001
vt 0.0005676523 0.001
vt -0.0005676523 -0.001
vt -0.0005676523 0.001
vt 0.00029440605 -0.001
vt -0.00029440605 0.001
vt -0.00029440605 -0.001
vt 0.00024533836 -0.001
vt -0.00024533836 0.001
vt -0.00024533836 -0.001
vt 0.00029440605 0.001
vt 0.00024533836 0.001
vt 0.9296875 0
vt 0.9531249 2
vt 0.875 2
vt 0.0859375 0
vt 0.046875093 2
vt 1 0
vt 0.09375001 0
vt 0.125 2
vt 0.17187497 0
vt 0.20312491 2
vt 0.265625 0
vt 0.2968751 2
vt 0.375 2
vt 0.359375 0
vt 0.43749994 0
vt 0.5312501 0
vt 0.4531249 2
vt 0.5468751 2
vt 0.625 0
vt 0.625 2
vt 0.7031249 0
vt 0.7968751 0
vt 0.7031249 2
vt 0.98437476 2
vt 0 2
vt 0.875 0
vt 0.7968751 2
vt 0.0014142136 -0.0014142136
vt 0.0046193977 -0.0019134171
vt 0.003535534 -0.0035355338
vt 0.0019134171 -0.0046193977
vt 0.0005503164 -0.0019227979
vt 0.0000000000003000007 -0.005
vt -0.0014142136 -0.0014142136
vt -0.0019134171 -0.0046193977
vt -0.0035355338 -0.003535534
vt -0.0019666108 -0.0003639261
vt -0.005 -0.000000000000100000676
vt -0.0018595766 0.0007361894
vt -0.0005503164 -0.0019227979
vt -0.0046193977 -0.0019134171
vt -0.0046193977 0.0019134171
vt -0.0012605962 0.0015527064
vt -0.0019134171 0.0046193977
vt -0.00017970888 0.00199191
vt -0.003535534 0.0035355338
vt 0 0.005
vt 0.0009185892 0.001776568
vt 0.0019134171 0.0046193977
vt 0.001673991 0.0010944195
vt 0.0046193977 0.0019134171
vt 0.002 -0.00000000000000000048985874
vt 0.005 0.00000000000019999979
vt -0.0033334214 0.0049888175
vt -0.0049888175 0.0033334214
vt -0.001170542 0.0058847116
vt -0.0058847116 0.001170542
vt -0.0058847116 -0.001170542
vt -0.0049888175 -0.0033334214
vt -0.0033334214 -0.0049888175
vt 0.0033334214 -0.0049888175
vt 0.001170542 -0.0058847116
vt 0.0049888175 -0.0033334214
vt 0.0035355338 0.003535534
vt 0.0058847116 -0.001170542
vt 0.0049888175 0.0033334214
vt 0.0058847116 0.001170542
vt 0.0033334214 0.0049888175
vt 0.001170542 0.0058847116
vt -0.001170542 -0.0058847116
vt 0.0014142136 0.0014142136
vt 0.0038650522 0.0031719664
vt 0.0023569837 0.004409606
vt 0.004784702 0.0014514234
vt 0.0005503164 0.0019227979
vt -0.0005503164 0.0019227979
vt -0.0019666108 0.0003639261
vt -0.0014142136 0.0014142136
vt -0.004409606 0.0023569837
vt -0.0031719664 0.0038650522
vt -0.004975924 0.0004900857
vt -0.0012605962 -0.0015527064
vt -0.0018595766 -0.0007361894
vt -0.0038650522 -0.0031719664
vt -0.004784702 -0.0014514234
vt -0.0023569837 -0.004409606
vt 0.0009185892 -0.001776568
vt -0.00017970888 -0.00199191
vt 0.0014514234 -0.004784702
vt -0.0004900857 -0.004975924
vt 0.001673991 -0.0010944195
vt 0.0031719664 -0.0038650522
vt 0.0038063596 0.004638063
vt -0.0014514234 0.004784702
vt 0.0052915276 0.0028283803
vt 0.004975924 -0.0004900857
vt 0.0059711086 0.00058810285
vt 0.004409606 -0.0023569837
vt 0.005741642 -0.001741708
vt 0.004638063 -0.0038063596
vt -0.001741708 -0.005741642
vt -0.0038063596 -0.004638063
vt 0.00058810285 -0.0059711086
vt -0.0052915276 -0.0028283803
vt -0.005741642 0.001741708
vt -0.004638063 0.0038063596
vt -0.0059711086 -0.00058810285
vt -0.0028283803 0.0052915276
vt 0.001741708 0.005741642
vt 0.0028283803 -0.0052915276
vt -0.00058810285 0.0059711086
vn 0.85537255 0.5180133 0
vn -0.14673047 0.9891765 0
vn -0.9689118 0.24740626 0
vn -0.33688986 0.94154406 0
vn 0.5920261 0.8059188 0
vn -0.51410276 0.8577286 0
vn -0.9898361 -0.14221293 0
vn -0.671559 0.7409511 0
vn 0.23854904 0.97113043 0
vn -0.8032075 0.5956993 0
vn -0.8600668 -0.5101815 0
vn -0.9039893 0.42755508 0
vn -0.15124497 0.9884963 0
vn -0.97003126 0.24298018 0
vn -0.5993601 -0.80047953 0
vn -0.99879545 0.049067676 0
vn -0.5180133 0.85537255 0
vn -0.9891765 -0.14673047 0
vn -0.24740626 -0.9689118 0
vn -0.94154406 -0.33688986 0
vn -0.8059188 0.5920261 0
vn -0.8577286 -0.51410276 0
vn 0.14221293 -0.9898361 0
vn -0.7409511 -0.671559 0
vn -0.97113043 0.23854904 0
vn -0.5956993 -0.8032075 0
vn 0.5101815 -0.8600668 0
vn -0.42755508 -0.9039893 0
vn -0.9884963 -0.15124497 0
vn -0.24298018 -0.97003126 0
vn 0.80047953 -0.5993601 0
vn -0.049067676 -0.99879545 0
vn -0.85537255 -0.5180133 0
vn 0.14673047 -0.9891765 0
vn 0.9689118 -0.24740626 0
vn 0.33688986 -0.94154406 0
vn -0.5920261 -0.8059188 0
vn 0.51410276 -0.8577286 0
vn 0.9898361 0.14221293 0
vn 0.671559 -0.7409511 0
vn -0.23854904 -0.97113043 0
vn 0.8032075 -0.5956993 0
vn 0.8600668 0.5101815 0
vn 0.9039893 -0.42755508 0
vn 0.15124497 -0.9884963 0
vn 0.97003126 -0.24298018 0
vn 0.5993601 0.80047953 0
vn 0.99879545 -0.049067676 0
vn 0.5180133 -0.85537255 0
vn 0.9891765 0.14673047 0
vn 0.24740626 0.9689118 0
vn 0.94154406 0.33688986 0
vn 0.8059188 -0.5920261 0
vn 0.8577286 0.51410276 0
vn -0.14221293 0.9898361 0
vn 0.7409511 0.671559 0
vn 0.97113043 -0.23854904 0
vn 0.5956993 0.8032075 0
vn -0.5101815 0.8600668 0
vn 0.42755508 0.9039893 0
vn 0.9884963 0.15124497 0
vn 0.24298018 0.97003126 0
vn -0.80047953 0.5993601 0
vn 0.049067676 0.99879545 0
vn -0.9102734 -0.4140077 0
vn -0.9613988 -0.27515876 0
vn -0.70710677 -0.70710677 0
vn -0.8638435 0.5037602 0
vn -0.9613988 0.27515876 0
vn -1 -0.0000000034165313 0
vn -0.8369955 0.5472098 0
vn -0.70710677 0.70710677 0
vn -0.45929474 0.88828397 0
vn -0.27515876 0.9613988 0
vn 0.08985444 0.99595493 0
vn 0.27515876 0.9613988 0
vn 0.70710677 0.70710677 0
vn 0.63029814 0.7763532 0
vn 0.9297882 0.368095 0
vn 0.9833052 -0.18196394 -0
vn 0.9613988 0.27515876 0
vn 0.9613988 -0.27515876 -0
vn 0.70710677 -0.70710677 -0
vn 0.27515876 -0.9613988 -0
vn -0.27515876 -0.9613988 0
vn -0.9959548 -0.08985568 0
vn -1 0.000000000000000229994 0
vn -0 0 -1
vn 0 -0 1
o Unnamed-0
f 1/1/1 2/2/1 3/3/1
f 3/3/1 2/2/1 4/4/1
f 3/5/2 4/6/2 5/7/2
f 5/1/3 6/2/3 7/3/3
f 7/3/3 6/2/3 8/4/3
f 7/8/4 8/9/4 9/10/4
f 9/1/5 10/2/5 11/3/5
f 11/3/5 10/2/5 12/4/5
f 11/5/6 12/6/6 13/7/6
f 13/4/7 14/3/7 15/2/7
f 15/2/7 14/3/7 16/1/7
f 15/8/8 16/9/8 17/10/8
f 17/1/9 18/2/9 19/3/9
f 19/3/9 18/2/9 20/4/9
f 19/5/10 20/6/10 21/7/10
f 21/4/11 22/3/11 23/2/11
f 23/2/11 22/3/11 24/1/11
f 23/8/12 24/9/12 25/10/12
f 25/1/13 26/2/13 27/3/13
f 27/3/13 26/2/13 28/4/13
f 27/5/14 28/6/14 29/7/14
f 29/4/15 30/3/15 31/2/15
f 31/2/15 30/3/15 32/1/15
f 31/8/16 32/9/16 33/10/16
f 33/1/17 34/2/17 35/3/17
f 35/3/17 34/2/17 36/4/17
f 35/6/18 36/5/18 37/11/18
f 37/4/19 38/3/19 39/2/19
f 39/2/19 38/3/19 40/1/19
f 39/9/20 40/8/20 41/12/20
f 41/1/21 42/2/21 43/3/21
f 43/3/21 42/2/21 44/4/21
f 43/6/22 44/5/22 45/11/22
f 45/4/23 46/3/23 47/2/23
f 47/2/23 46/3/23 48/1/23
f 47/9/24 48/8/24 49/12/24
f 49/1/25 50/2/25 51/3/25
f 51/3/25 50/2/25 52/4/25
f 51/6/26 52/5/26 53/11/26
f 53/4/27 54/3/27 55/2/27
f 55/2/27 54/3/27 56/1/27
f 55/9/28 56/8/28 57/12/28
f 57/4/29 58/3/29 59/2/29
f 59/2/29 58/3/29 60/1/29
f 59/6/30 60/5/30 61/11/30
f 61/4/31 62/3/31 63/2/31
f 63/2/31 62/3/31 64/1/31
f 63/9/32 64/8/32 65/12/32
f 65/4/33 66/3/33 67/2/33
f 67/2/33 66/3/33 68/1/33
f 67/6/34 68/5/34 69/11/34
f 69/4/35 70/3/35 71/2/35
f 71/2/35 70/3/35 72/1/35
f 71/9/36 72/8/36 73/12/36
f 73/4/37 74/3/37 75/2/37
f 75/2/37 74/3/37 76/1/37
f 75/6/38 76/5/38 77/11/38
f 77/1/39 78/2/39 79/3/39
f 79/3/39 78/2/39 80/4/39
f 79/9/40 80/8/40 81/12/40
f 81/4/41 82/3/41 83/2/41
f 83/2/41 82/3/41 84/1/41
f 83/6/42 84/5/42 85/11/42
f 85/1/43 86/2/43 87/3/43
f 87/3/43 86/2/43 88/4/43
f 87/9/44 88/8/44 89/12/44
f 89/4/45 90/3/45 91/2/45
f 91/2/45 90/3/45 92/1/45
f 91/6/46 92/5/46 93/11/46
f 93/1/47 94/2/47 95/3/47
f 95/3/47 94/2/47 96/4/47
f 95/9/48 96/8/48 97/12/48
f 97/4/49 98/3/49 99/2/49
f 99/2/49 98/3/49 100/1/49
f 99/5/50 100/6/50 101/7/50
f 101/1/51 102/2/51 103/3/51
f 103/3/51 102/2/51 104/4/51
f 103/8/52 104/9/52 105/10/52
f 105/4/53 106/3/53 107/2/53
f 107/2/53 106/3/53 108/1/53
f 107/5/54 108/6/54 109/7/54
f 109/1/55 110/2/55 111/3/55
f 111/3/55 110/2/55 112/4/55
f 111/8/56 112/9/56 113/10/56
f 113/4/57 114/3/57 115/2/57
f 115/2/57 114/3/57 116/1/57
f 115/5/58 116/6/58 117/7/58
f 117/1/59 118/2/59 119/3/59
f 119/3/59 118/2/59 120/4/59
f 119/8/60 120/9/60 121/10/60
f 121/1/61 122/2/61 123/3/61
f 123/3/61 122/2/61 124/4/61
f 123/5/62 124/6/62 125/7/62
f 125/1/63 126/2/63 127/3/63
f 127/3/63 126/2/63 128/4/63
f 127/8/64 128/9/64 1/10/64
f 129/13/65 130/14/66 131/15/67
f 132/16/68 133/17/69 134/18/70
f 132/16/68 135/19/71 136/20/72
f 133/17/69 132/16/68 136/20/72
f 136/20/72 135/19/71 137/21/73
f 138/22/74 137/21/73 139/23/75
f 140/24/76 138/22/74 139/23/75
f 141/25/77 140/24/76 142/26/78
f 143/27/79 141/25/77 142/26/78
f 144/28/80 145/29/81 143/27/79
f 144/28/80 146/30/82 145/29/81
f 147/31/83 148/32/83 146/30/82
f 147/31/83 149/33/84 148/32/83
f 149/33/84 150/34/85 151/35/84
f 152/36/86 130/14/66 134/18/70
f 153/37/87 134/18/70 133/17/69
f 131/15/67 154/38/67 129/13/65
f 131/15/67 155/39/85 154/38/67
f 154/38/67 155/39/85 150/34/85
f 150/34/85 155/39/85 151/35/84
f 149/33/84 151/35/84 148/32/83
f 147/31/83 146/30/82 144/28/80
f 145/29/81 141/25/77 143/27/79
f 140/24/76 139/23/75 142/26/78
f 134/18/70 153/37/87 152/36/86
f 136/20/72 137/21/73 138/22/74
f 130/14/66 129/13/65 134/18/70
f 156/40/88 90/41/88 82/42/88
f 156/40/88 74/43/88 157/44/88
f 156/40/88 82/42/88 74/43/88
f 157/44/88 74/43/88 66/45/88
f 158/46/88 58/47/88 50/48/88
f 159/49/88 34/50/88 160/51/88
f 66/45/88 58/47/88 161/52/88
f 158/46/88 50/48/88 42/53/88
f 160/51/88 34/50/88 26/54/88
f 162/55/88 10/56/88 163/57/88
f 160/51/88 26/54/88 18/58/88
f 163/57/88 2/59/88 164/60/88
f 34/50/88 159/49/88 42/53/88
f 162/55/88 18/58/88 10/56/88
f 164/60/88 2/59/88 122/61/88
f 165/62/88 106/63/88 134/64/88
f 134/64/88 106/63/88 98/65/88
f 161/52/88 58/47/88 158/46/88
f 159/49/88 158/46/88 42/53/88
f 10/56/88 18/58/88 14/66/88
f 162/55/88 160/51/88 18/58/88
f 18/58/88 26/54/88 22/67/88
f 2/59/88 10/56/88 6/68/88
f 26/54/88 34/50/88 30/69/88
f 38/70/88 34/50/88 42/53/88
f 46/71/88 42/53/88 50/48/88
f 50/48/88 58/47/88 54/72/88
f 157/44/88 66/45/88 161/52/88
f 74/43/88 82/42/88 78/73/88
f 74/43/88 70/74/88 66/45/88
f 134/64/88 90/41/88 156/40/88
f 134/64/88 98/65/88 90/41/88
f 82/42/88 90/41/88 86/75/88
f 114/76/88 165/62/88 164/60/88
f 94/77/88 90/41/88 98/65/88
f 165/62/88 114/76/88 106/63/88
f 106/63/88 114/76/88 110/78/88
f 106/63/88 102/79/88 98/65/88
f 164/60/88 122/61/88 114/76/88
f 10/56/88 2/59/88 163/57/88
f 114/76/88 122/61/88 118/80/88
f 126/81/88 122/61/88 2/59/88
f 62/82/88 58/47/88 66/45/88
f 131/83/89 111/84/89 119/85/89
f 131/83/89 153/64/89 103/86/89
f 155/87/89 119/85/89 1/59/89
f 1/59/89 151/88/89 155/87/89
f 166/89/89 148/90/89 23/91/89
f 23/91/89 148/90/89 15/92/89
f 31/93/89 166/89/89 23/91/89
f 167/94/89 168/95/89 47/96/89
f 47/96/89 168/95/89 39/97/89
f 55/98/89 167/94/89 47/96/89
f 169/99/89 170/100/89 71/101/89
f 71/101/89 170/100/89 63/102/89
f 171/103/89 169/99/89 79/104/89
f 79/104/89 169/99/89 71/101/89
f 131/83/89 103/86/89 111/84/89
f 119/85/89 111/84/89 115/105/89
f 151/88/89 1/59/89 7/106/89
f 111/84/89 103/86/89 107/107/89
f 131/83/89 119/85/89 155/87/89
f 103/86/89 95/108/89 99/109/89
f 15/92/89 148/90/89 151/88/89
f 87/110/89 91/111/89 95/108/89
f 153/64/89 171/103/89 95/108/89
f 103/86/89 153/64/89 95/108/89
f 171/103/89 87/110/89 95/108/89
f 79/104/89 83/112/89 87/110/89
f 87/110/89 171/103/89 79/104/89
f 63/102/89 55/98/89 59/113/89
f 55/98/89 47/96/89 51/114/89
f 71/101/89 63/102/89 67/115/89
f 47/96/89 39/97/89 43/116/89
f 7/106/89 15/92/89 151/88/89
f 63/102/89 170/100/89 55/98/89
f 31/93/89 23/91/89 27/117/89
f 23/91/89 15/92/89 19/118/89
f 167/94/89 55/98/89 170/100/89
f 39/97/89 31/93/89 35/119/89
f 15/92/89 7/106/89 11/120/89
f 31/93/89 39/97/89 168/95/89
f 123/121/89 1/59/89 119/85/89
f 79/104/89 71/101/89 75/122/89
f 1/59/89 3/123/89 7/106/89
f 31/93/89 168/95/89 166/89/89
